{"title":"Paddington.2014.UNSUBBED.HDRip.XVID.AC3.HQ.Hive-CM8","uid":11704364,"size":1392052224,"categoryP":"video","categoryS":"movies","magnet":"?xt=urn:btih:4daf89220d74e1079412344c766fabc12609247c&amp;dn=Paddington.2014.UNSUBBED.HDRip.XVID.AC3.HQ.Hive-CM8&amp;tr=udp%3A%2F%2Ftracker.openbittorrent.com%3A80&amp;tr=udp%3A%2F%2Fopen.demonii.com%3A1337&amp;tr=udp%3A%2F%2Ftracker.coppersurfer.tk%3A6969&amp;tr=udp%3A%2F%2Fexodus.desync.com%3A6969","seeders":5,"leechers":0,"uploader":"Robblowe","files":1,"time":1424052261,"description":" &lt;a href=&quot;http://img911.imageshack.us/img911/6596/51Q2CU.jpg&quot; rel=&quot;nofollow&quot; target=&quot;_NEW&quot;&gt;http://img911.imageshack.us/img911/6596/51Q2CU.jpg&lt;/a&gt;\n\n\nPaddington.2014.UNSUBBED.HDRip.XVID.AC3.HQ.Hive-CM8\n\nThx Hive\n\nCM8 Doing It Right The First Time\n\n\nSource:\n\nVideo: Unsubbed 720p Korean VOD\nAudio: English good cam or bad line from Subbed 720p Korean VOD\nthx\n\nNotes:\n\nwell that was a pita, combining the best of two so different files together to get one perfect one, took me 2 days\nthere are 2 different Korean Videos\n\nVideo 1: Hardcoded Korean Subs    with English good cam or bad line audio with 24 frames with runtime 1h26\nVideo 2: Non-Subbed Korean Video with Korean Studio audio with 30 frames with runtime 1h35\n\nYou cant speedup audio that much and you cant slow down video that much without getting it jerky, \nhad to do a workaround and find a common Videoframerate (25frames in this case) for both Video and Audio without getting jerky video.\nSo NO Video has been cut out and NO Audio has been removed or added, all is untouched\ncombined framerate is now 25 frames and runtime in the middle 1h31, its all there\n\nEncode:\n\nfor the Video i fixed rgb and added sharpness\nthe Audio eventhough its called studio audio isnt the best, sounds more like a line, tried cleaning it, not much to improve\n\nstill got very nice and will do me till retail\n\nenjoy\n\nVideo: 720x304 @bitrate 1800 2pass\nAudio: English AC3 2.0 Stereo\nSample: yes included\n\nPS: 720p too later,if i can get it to work\n\n\n &lt;a href=&quot;\nhttp://www.imdb.com/title/tt1109624/&quot; rel=&quot;nofollow&quot; target=&quot;_NEW&quot;&gt;\nhttp://www.imdb.com/title/tt1109624/&lt;/a&gt;\n\n\nGeneral\nComplete name                  : Paddington.2014.UNSUBBED.HDRip.XVID.AC3.HQ.Hive-CM8.avi\nFormat                         : AVI\nFormat/Info                    : Audio Video Interleave\nFile size                      : 1.30 GiB\nDuration                       : 1h 31mn\nOverall bit rate               : 2 033 Kbps\nWriting application            : Nandub v1.0rc2\nWriting library                : Nandub build 1853/release\n\nVideo\nID                             : 0\nFormat                         : MPEG-4 Visual\nFormat profile                 : Advanced Simple@L5\nFormat settings, BVOP          : 2\nFormat settings, QPel          : Yes\nFormat settings, GMC           : No warppoints\nFormat settings, Matrix        : Default (H.263)\nMuxing mode                    : Packed bitstream\nCodec ID                       : XVID\nCodec ID/Hint                  : XviD\nDuration                       : 1h 31mn\nBit rate                       : 1 799 Kbps\nWidth                          : 720 pixels\nHeight                         : 304 pixels\nDisplay aspect ratio           : 2.35:1\nFrame rate                     : 25.000 fps\nColor space                    : YUV\nChroma subsampling             : 4:2:0\nBit depth                      : 8 bits\nScan type                      : Progressive\nCompression mode               : Lossy\nBits/(Pixel*Frame)             : 0.329\nStream size                    : 1.15 GiB (89%)\nWriting library                : XviD 1.2.1 (UTC 2008-12-04)\n\nAudio\nID                             : 1\nFormat                         : AC-3\nFormat/Info                    : Audio Coding 3\nMode extension                 : CM (complete main)\nFormat settings, Endianness    : Big\nCodec ID                       : 2000\nDuration                       : 1h 31mn\nBit rate mode                  : Constant\nBit rate                       : 224 Kbps\nChannel(s)                     : 2 channels\nChannel positions              : Front: L R\nSampling rate                  : 48.0 KHz\nBit depth                      : 16 bits\nCompression mode               : Lossy\nStream size                    : 146 MiB (11%)\nAlignment                      : Split accross interleaves\nInterleave, duration           : 40 ms (1.00 video frame)\nInterleave, preload duration   : 500 ms\n\n\n\nPlot:\n\nA young Peruvian bear travels to London in search of a home. \nFinding himself lost and alone at Paddington Station, he meets the \nkindly Brown family, who offer him a temporary haven.\n\n\nCast:\n\nNicole Kidman  ... Millicent \nBen Whishaw  ... Paddington (voice) \nTim Downie  ... Montgomery Clyde \n\n &lt;a href=&quot;\nhttp://img910.imageshack.us/img910/4903/eB0HnF.png&quot; rel=&quot;nofollow&quot; target=&quot;_NEW&quot;&gt;\nhttp://img910.imageshack.us/img910/4903/eB0HnF.png&lt;/a&gt;\n &lt;a href=&quot;\nhttp://img537.imageshack.us/img537/5815/eXvdKe.png&quot; rel=&quot;nofollow&quot; target=&quot;_NEW&quot;&gt;\nhttp://img537.imageshack.us/img537/5815/eXvdKe.png&lt;/a&gt;\n &lt;a href=&quot;\nhttp://img540.imageshack.us/img540/3007/lnAIg3.png&quot; rel=&quot;nofollow&quot; target=&quot;_NEW&quot;&gt;\nhttp://img540.imageshack.us/img540/3007/lnAIg3.png&lt;/a&gt;\n &lt;a href=&quot;\nhttp://img538.imageshack.us/img538/1954/oX7zZa.png&quot; rel=&quot;nofollow&quot; target=&quot;_NEW&quot;&gt;\nhttp://img538.imageshack.us/img538/1954/oX7zZa.png&lt;/a&gt;\n &lt;a href=&quot;\nhttp://img661.imageshack.us/img661/9626/5NNQCH.png&quot; rel=&quot;nofollow&quot; target=&quot;_NEW&quot;&gt;\nhttp://img661.imageshack.us/img661/9626/5NNQCH.png&lt;/a&gt;\n\n\n\nvideo=\nSiMPLE\nViSiON,SceneLovers,PRESTiGE,SANTi,YanKeeS,COPYxRIGHT,THC,\nLKRG,Kingstoner,REsuRRecTioN,FooKaS,ACAB,Unevano,BigVik,Rapeseed,SAFC,\ngoldadvance,KaN1vE,Pinnz,Wayne,SeeN,jtr,ICONiK,TED\nMr Hive,and most P2P \nGreat Work Guys :D\n\nLOOKING FOR ANYTHING YOU WANT TO LOOK AND SOUND BETTER\n\nCOME FIND US \n&lt;a class=&quot;__cf_email__&quot; href=&quot;/cdn-cgi/l/email-protection&quot; data-cfemail=&quot;f7b4bacfb79f82849f9a969e9bd99a92&quot;&gt;[email&amp;#160;protected]&lt;/a&gt;&lt;script cf-hash='f9e31' type=&quot;text/javascript&quot;&gt;\n/* &lt;![CDATA[ */!function(){try{var t=&quot;currentScript&quot;in document?document.currentScript:function(){for(var t=document.getElementsByTagName(&quot;script&quot;),e=t.length;e--;)if(t[e].getAttribute(&quot;cf-hash&quot;))return t[e]}();if(t&amp;&amp;t.previousSibling){var e,r,n,i,c=t.previousSibling,a=c.getAttribute(&quot;data-cfemail&quot;);if(a){for(e=&quot;&quot;,r=parseInt(a.substr(0,2),16),n=2;a.length-n;n+=2)i=parseInt(a.substr(n,2),16)^r,e+=String.fromCharCode(i);e=document.createTextNode(e),c.parentNode.replaceChild(e,c)}}}catch(u){}}();/* ]]&gt; */&lt;/script&gt;","torrent":{"xt":"urn:btih:4daf89220d74e1079412344c766fabc12609247c","amp;dn":"Paddington.2014.UNSUBBED.HDRip.XVID.AC3.HQ.Hive-CM8","amp;tr":["udp%3A%2F%2Ftracker.openbittorrent.com%3A80","udp%3A%2F%2Fopen.demonii.com%3A1337","udp%3A%2F%2Ftracker.coppersurfer.tk%3A6969","udp%3A%2F%2Fexodus.desync.com%3A6969"],"infoHash":"4daf89220d74e1079412344c766fabc12609247c","infoHashBuffer":{"type":"Buffer","data":[77,175,137,34,13,116,225,7,148,18,52,76,118,111,171,193,38,9,36,124]},"announce":[],"urlList":[]}}